# xmcd CD database file
#
# Track frame offsets:
#	150
#	21225
#	37000
#	50279
#	66736
#	81029
#	101391
#	118704
#	134539
#	155436
#	173779
#	189796
#
# Disc length: 2721 seconds
#
# Revision: 1
# Processed by: cddbd v1.5PL3 Copyright (c) Steve Scherf et al.
# Submitted via: CDex 1.51
#
DISCID=9e0a9f0c
DTITLE=Mikel Erentxun - Te Dejas Ver
DYEAR=2000
DGENRE=EuskoPop
TTITLE0=Rara Vez
TTITLE1=En Que Mujer
TTITLE2=California
TTITLE3=La Orilla De Carla
TTITLE4=Por No Decirte Adios
TTITLE5=A Flor De Piel
TTITLE6=Fácil
TTITLE7=Próxima Estacion
TTITLE8=En Silencio
TTITLE9=Contracorriente
TTITLE10=El Invierno Es Mujer
TTITLE11=Que Nadie Me Detenga
EXTD=YEAR: 2000
EXTT0=
EXTT1=
EXTT2=
EXTT3=
EXTT4=
EXTT5=
EXTT6=
EXTT7=
EXTT8=
EXTT9=
EXTT10=
EXTT11=
PLAYORDER=
